<svg width="24" height="18" viewBox="0 0 24 18" fill="none" xmlns="http://www.w3.org/2000/svg">
<path d="M11.0403 16.9624C10.5943 15.9676 11.4176 14.8919 12.0305 14.0219C12.5013 13.3531 13.062 12.7534 13.6965 12.24C14.1372 11.9088 14.5601 11.5539 14.9632 11.1771C11.3637 11.22 6.48639 11.429 2.78224 11.6099C0.448153 11.7797 0.0439326 10.9114 0 10.2922C0.0933904 8.97453 0.617549 7.68883 2.16604 7.50653C4.60369 7.21949 3.75948 7.1113 6.28028 7.05478C8.98779 6.99413 12.7167 6.922 15.2244 6.7725C14.3021 6.12174 12.9206 5.37705 11.9533 4.80046C11.4558 4.50378 9.9027 3.85499 9.57718 2.86924C9.28218 1.97593 9.77454 -0.0962978 10.9297 0.00347938C12.5915 0.14727 15.2167 1.92268 16.8446 2.70161C19.0707 3.85234 21.5343 4.82559 23.3376 6.6139C23.8326 7.20985 24.2285 8.09168 23.8482 8.81539C23.3092 9.84101 20.6563 12.1859 19.8364 12.8711C18.2216 14.2208 16.3073 16.0332 14.5422 17.4516C13.2076 18.5241 11.4338 17.8403 11.0403 16.9624Z" fill="#241F21"/>
</svg>
