<svg width="12" height="12" viewBox="0 0 12 12" fill="none" xmlns="http://www.w3.org/2000/svg">
<path d="M8.54948 0.077858C9.08184 0.0302553 10.8476 -0.0783923 11.401 0.093483C11.7913 0.21486 11.9639 0.665864 11.9997 1.05149C11.9944 2.32133 11.4668 3.5373 11.0866 4.73118C10.7865 5.58223 10.4865 7.13783 9.94987 7.7761C9.57683 8.21968 8.67043 7.66104 8.45866 7.24094C8.22523 6.77734 8.54487 5.99831 8.61589 5.71751C8.75402 5.17172 8.97889 4.41997 9.07487 3.86399C8.1355 4.69767 6.79182 5.99071 5.81315 6.92649C4.90205 7.79764 5.1618 7.46142 4.1989 8.22141C3.58704 8.70437 2.94678 8.43542 2.44792 8.00266C2.24454 7.76822 2.08024 7.31766 2.9655 6.55247C4.33906 5.30685 6.13773 3.65652 7.42546 2.39915C7.1497 2.40844 6.87419 2.43269 6.60124 2.47141C6.1955 2.51421 5.78533 2.50041 5.38249 2.4304C4.85827 2.3395 4.1869 2.25028 3.99284 1.74094C3.82159 1.29144 4.20728 0.42249 5.05827 0.329811C6.18377 0.207237 7.50146 0.171605 8.54948 0.077858Z" fill="#241F21"/>
</svg>
