<svg width="12" height="12" viewBox="0 0 12 12" fill="none" xmlns="http://www.w3.org/2000/svg">
<path d="M8.5501 0.0778846C9.08219 0.0302907 10.8492 -0.0784337 11.4026 0.0935096C11.7929 0.214908 11.9646 0.666822 12.0003 1.05249C11.995 2.32225 11.4684 3.5374 11.0882 4.7312C10.788 5.58216 10.4872 7.13872 9.95049 7.7771C9.57719 8.21987 8.67093 7.66191 8.45928 7.24195C8.22585 6.77834 8.54549 5.99931 8.6165 5.71851C8.75463 5.17269 8.98046 4.42111 9.07647 3.86499C8.137 4.69875 6.79246 5.99169 5.81377 6.92749C4.90276 7.79854 5.16277 7.46211 4.19951 8.22242C3.58764 8.70524 2.94738 8.43648 2.44854 8.00367C2.24516 7.76922 2.08183 7.31866 2.96709 6.55347C4.34056 5.30793 6.13838 3.65748 7.42607 2.40015C7.15044 2.40945 6.87566 2.43371 6.60283 2.47242C6.19712 2.51524 5.78691 2.50138 5.38408 2.4314C4.85998 2.34052 4.18866 2.25098 3.99443 1.74195C3.8232 1.2925 4.20813 0.423687 5.05889 0.330814C6.18434 0.208224 7.50203 0.171619 8.5501 0.0778846Z" fill="#0D7DBB"/>
</svg>
