<svg width="10" height="8" viewBox="0 0 10 8" fill="none" xmlns="http://www.w3.org/2000/svg">
<path d="M5.39988 7.53885C5.58571 7.09672 5.24265 6.61861 4.98731 6.23197C4.79114 5.93469 4.55752 5.66816 4.29314 5.44C4.10948 5.29278 3.93329 5.13509 3.76532 4.9676C5.26511 4.98668 7.29734 5.07953 8.84073 5.15995C9.81327 5.23542 9.98169 4.84951 10 4.57432C9.96109 3.98868 9.74269 3.41726 9.09748 3.33624C8.0818 3.20866 8.43355 3.16058 7.38322 3.13546C6.25509 3.1085 4.70139 3.07644 3.6565 3.01C4.0408 2.72077 4.61643 2.3898 5.01945 2.13354C5.22676 2.00168 5.87388 1.71333 6.00951 1.27522C6.13242 0.878191 5.92728 -0.042799 5.44598 0.00154639C4.75355 0.0654533 3.65973 0.854524 2.98142 1.20071C2.05389 1.71215 1.02737 2.14471 0.275984 2.93951C0.0697412 3.20438 -0.0952291 3.5963 0.0632286 3.91795C0.287833 4.37378 1.39319 5.41594 1.73481 5.7205C2.40767 6.32036 3.20527 7.12588 3.94077 7.75629C4.49683 8.23292 5.23592 7.92902 5.39988 7.53885Z" fill="#241F21"/>
</svg>
