<svg width="16" height="12" viewBox="0 0 16 12" fill="none" xmlns="http://www.w3.org/2000/svg">
<path d="M1.57781 2.34072C2.7519 2.47893 4.02329 2.37542 5.16625 2.38131C8.32463 2.34697 11.0853 2.43921 14.2276 2.39211C15.4636 2.37358 15.858 1.9659 15.9547 1.24234C15.958 0.992094 15.8329 0.749422 15.6026 0.558945C15.3722 0.368468 15.052 0.24299 14.7008 0.205581C13.8847 0.0990966 10.0018 -0.0150773 8.70511 0.00163925C5.8651 0.0387166 4.83948 -0.0354046 1.45402 0.050719C0.368995 0.112838 -0.0428481 0.540581 0.0271842 1.28022C0.106137 2.11414 1.04787 2.27833 1.57781 2.34072ZM13.1495 9.52606C12.1502 9.48851 11.1543 9.5063 10.2314 9.49704C7.97599 9.45505 3.86435 9.55291 1.605 9.56314C0.681957 9.56732 -0.10434 9.85959 0.011337 10.9207C0.120466 11.921 1.05281 11.972 2.28881 11.9906C4.24497 12.0199 7.49929 11.9724 9.45582 11.9605C10.5708 11.9538 12.9286 11.9722 14.0435 11.9722C15.7002 11.9722 15.8579 11.6016 15.9916 10.6494C16.1017 9.86544 15.1219 9.60018 13.1495 9.52606ZM6.22646 4.77792C4.77992 4.75885 3.3331 4.80368 1.89452 4.91216C0.243354 5.08658 0.130857 5.55802 0.166964 6.28034C0.211517 7.1728 1.2016 7.18273 1.7732 7.19945C2.76233 7.22837 3.82292 7.238 4.85187 7.2171C7.68006 7.15953 10.5572 7.17829 13.3726 7.20901C14.4645 7.1728 15.3586 6.8022 15.4112 6.00542C15.4823 4.92453 14.4061 4.83573 13.2023 4.8152C11.3625 4.78454 8.06614 4.75385 6.22646 4.77792Z" fill="#241F21"/>
</svg>
