<svg width="160" height="214" viewBox="0 0 160 214" fill="none" xmlns="http://www.w3.org/2000/svg">
<path d="M16.3662 200.409C15.8554 202.766 15.4176 205.141 14.801 207.469C14.4325 208.859 13.9983 210.319 13.2175 211.495C10.9298 214.944 6.31425 214.79 3.99737 211.293C1.84467 208.042 1.18427 204.31 0.658866 200.545C0.396164 198.67 0.107922 196.787 0.0130572 194.901C-0.045321 193.768 0.0933272 192.577 0.403461 191.485C0.979946 189.47 1.97967 189.08 3.95723 189.944C6.08804 190.874 7.01114 192.647 7.15344 194.879C7.31763 197.442 7.41249 200.012 7.56209 202.578C7.59492 203.123 7.59857 203.726 7.84303 204.178C8.06195 204.582 8.591 204.814 8.9814 205.123C9.24046 204.777 9.63816 204.465 9.74032 204.079C10.8641 199.71 11.955 195.331 13.0314 190.948C13.659 188.396 14.3704 187.227 16.1838 185.966C18.581 187.411 20.3943 189.301 21.1678 192.158C21.9487 195.04 22.8973 197.879 23.835 200.718C24.1342 201.619 24.6341 202.453 25.0427 203.317C25.2178 203.317 25.3893 203.317 25.5645 203.321C25.7834 202.623 26.0789 201.942 26.2066 201.229C27.5457 193.779 28.8227 186.319 30.2128 178.876C30.4536 177.589 31.0411 176.328 31.6832 175.177C32.07 174.482 33.15 173.427 33.4273 173.559C34.5 174.078 35.8427 174.839 36.2039 175.835C36.6673 177.104 36.4337 178.711 36.2331 180.134C34.967 189.209 33.5696 198.265 32.3436 207.344C31.8073 211.322 28.9212 212.793 25.4331 210.51C22.496 208.587 20.0988 206.094 18.4752 202.898C18.0227 202.008 17.4426 201.188 16.9172 200.339C16.7311 200.361 16.5487 200.383 16.3626 200.405L16.3662 200.409Z" fill="#ECE6DA"/>
<path d="M134.305 188.51C134.206 190.569 133.155 191.511 131.765 192.129C127.77 193.905 123.746 195.618 119.75 197.398C116.131 199.012 112.643 200.828 109.775 203.693C108.348 205.116 106.214 205.138 104.813 203.829C103.127 202.255 102.996 201.126 104.13 199.313C105.995 196.339 105.47 192.945 105.601 189.676C105.67 187.974 105.4 186.205 105.791 184.587C106.203 182.884 105.918 181.781 104.488 180.895C104.244 180.744 104.072 180.469 103.58 179.947C104.554 178.88 105.316 177.369 106.498 176.869C112.573 174.295 118.758 171.982 124.909 169.588C125.004 169.552 125.139 169.614 125.417 169.654C125.997 171.397 125.479 172.912 124.037 173.92C122.257 175.17 120.341 176.247 118.404 177.244C116.733 178.101 114.971 178.796 113.208 179.454C112.077 179.877 112.084 180.737 112.435 181.502C112.603 181.866 113.511 182.171 113.971 182.053C116.255 181.472 118.521 180.807 120.754 180.046C123.727 179.035 123.713 178.987 125.537 182.245C124.107 183.226 122.739 184.447 121.148 185.183C118.9 186.223 116.521 187.036 114.131 187.698C112.161 188.246 111.581 189.474 111.534 191.334C111.431 195.35 111.552 195.335 115.219 193.864C119.878 191.996 124.625 190.323 129.408 188.79C130.886 188.315 132.593 188.58 134.297 188.503L134.305 188.51Z" fill="#ECE6DA"/>
<path d="M57.6213 188.874C56.6654 190.761 57.4243 193.077 58.0372 195.372C58.7013 197.846 59.2595 200.38 60.2191 202.74C61.3174 205.439 58.2124 208.708 56.1071 209.102C54.79 209.348 54.4579 208.484 54.25 207.41C53.6808 204.48 53.1846 201.523 52.4001 198.648C52.1228 197.629 51.1742 196.148 50.397 196.056C48.8755 195.875 47.3905 196.92 46.9417 198.516C46.285 200.85 45.8472 203.263 45.4969 205.667C45.0809 208.506 43.9061 209.789 41.6658 209.514C39.5387 209.252 38.2142 207.329 38.3273 204.583C38.3674 203.608 38.4258 202.604 38.6812 201.67C39.0206 200.424 38.8856 199.541 37.8676 198.582C36.7073 197.493 37.5903 195.07 39.4876 194.544C41.0711 194.107 41.3411 193.169 41.622 191.834C42.6327 187.003 43.3113 182.057 45.745 177.652C46.5623 176.174 47.5584 174.802 48.569 173.229C51.6047 175.472 54.1989 177.593 54.6513 181.509C54.8556 183.296 55.589 185.035 56.202 186.753C56.4355 187.411 56.9974 187.955 57.6249 188.867L57.6213 188.874ZM49.4921 187.264C47.2957 189.338 47.3613 190.036 49.7731 191.253C49.6673 189.768 49.5797 188.518 49.4921 187.264Z" fill="#ECE6DA"/>
<path d="M135.111 194.371C136.447 192.128 136.151 190.054 135.487 187.951C134.06 183.428 133.159 178.862 134.057 174.067C134.181 173.394 133.436 172.427 132.882 171.78C131.444 170.099 131.441 169.434 133.057 167.977C135.038 166.194 137.41 165.918 139.891 166.198C147.495 167.044 153.573 170.581 158.028 176.858C160.914 180.924 160.652 183.539 157.065 187.032C153.132 190.856 148.261 193.154 143.24 194.971C140.748 195.872 137.895 195.846 135.111 194.375V194.371ZM139.989 172.419C141.007 178.222 139.292 184.12 141.814 190.084C145.411 187.628 148.87 185.41 152.165 182.961C154.026 181.579 154.026 180.468 152.65 178.582C149.946 174.876 145.999 173.243 141.777 172.133C141.27 172 140.65 172.302 139.989 172.419Z" fill="#ECE6DA"/>
<path d="M89.4303 177.295C85.3876 178.876 81.6733 180.329 77.959 181.781C76.4119 182.388 74.5183 183.252 73.6025 181.447C73.2522 180.752 74.6314 178.792 75.6384 177.869C76.9082 176.707 78.5318 175.85 80.1263 175.152C87.3542 171.986 94.6113 168.901 101.89 165.86C102.77 165.492 103.985 165.227 104.798 165.547C106.736 166.312 106.995 168.776 105.218 169.963C103.007 171.441 100.595 172.629 98.2089 173.824C97.1398 174.361 96.6327 174.946 96.4247 176.233C95.56 181.642 95.2644 187.003 96.0416 192.478C96.37 194.809 95.8701 197.346 95.3265 199.688C94.8521 201.726 93.1336 202.564 91.437 202.034C90.0505 201.604 88.9633 201.104 89.5616 199.096C90.0141 197.574 89.8426 195.835 89.8097 194.195C89.7258 190.161 89.547 186.128 89.4339 182.094C89.3938 180.634 89.4266 179.174 89.4266 177.288L89.4303 177.295Z" fill="#ECE6DA"/>
<path d="M65.6995 204.318C67.6223 200.851 70.3661 199.545 73.1208 198.262C73.4492 198.108 73.8542 198.074 74.1278 197.865C74.6277 197.482 75.3756 197.037 75.4194 196.563C75.4596 196.14 74.7627 195.5 74.2519 195.206C71.9897 193.905 69.5925 192.827 67.3961 191.423C61.1314 187.426 60.1243 183.572 63.4409 176.873C64.718 174.295 66.6481 172.317 69.0343 170.728C70.6324 169.666 71.4679 170.5 72.2779 171.743C73.0697 172.96 73.9381 174.133 72.2123 175.328C70.0231 176.847 68.7169 179.024 67.9142 181.524C66.9984 184.374 67.5712 185.981 70.1143 187.588C72.6866 189.209 75.4231 190.599 77.8385 192.426C79.3709 193.588 80.6297 195.25 81.6768 196.901C82.6218 198.394 82.1402 199.95 80.4618 200.715C77.4335 202.093 74.4124 203.561 71.249 204.531C69.7093 205.002 67.8522 204.436 65.7068 204.314L65.6995 204.318Z" fill="#ECE6DA"/>
<path d="M99.0042 81.9387C97.6396 81.7291 96.2276 82.6042 94.9177 82.6153C92.6738 82.7734 91.1633 82.4204 88.2152 82.4719C84.5118 82.5123 80.6224 83.325 76.9482 83.4169C74.23 83.6081 71.2527 83.6743 68.5053 84.064C64.2801 84.6707 60.0185 84.6928 55.7898 85.1194C55.009 85.2701 54.4142 85.7408 54.396 86.5056C54.4142 87.0424 54.6332 87.3513 54.936 87.8992C55.2644 88.4728 55.7204 89.2303 56.2458 90.087C57.8294 92.694 59.8507 95.8048 61.2919 98.467C62.2916 100.39 62.9849 102.556 63.6088 104.648C64.386 107.082 65.7542 110.2 67.0276 112.76C67.8741 114.374 68.7424 116.297 69.7422 117.382C71.2344 118.11 73.0186 115.179 73.7848 114.065C74.8247 112.399 75.7478 110.962 76.9227 109.454C84.6906 100.703 91.3494 92.8779 98.8473 84.0788C99.3691 83.4941 100.135 82.2917 99.0553 81.9534M109.589 82.1373C108.746 82.9205 108.02 83.803 107.356 84.7406C99.4311 95.5952 89.9082 105.115 81.5273 115.565C79.3892 118.312 77.4006 121.018 75.1786 123.695C73.9089 125.122 72.9384 127.06 71.2892 127.817C70.0815 128.332 68.2097 128.578 67.148 127.468C64.178 124.07 62.8791 121.04 60.6643 116.165C59.0079 112.87 58.2307 109.208 56.9208 105.781C55.6584 102.291 53.9655 99.2392 52.4732 96.2534C51.5574 94.5032 50.2657 92.1241 49.1675 90.2929C48.3101 88.9177 47.4344 87.2851 46.2814 86.7593C45.1576 86.2372 43.939 86.4394 42.7204 86.4137C40.564 86.4394 37.9297 86.4982 36.0069 86.7189C33.7593 87.0571 31.9313 87.1417 29.5634 87.0351C28.1039 87.0535 25.798 86.5166 26.5569 88.8626C32.0189 99.6363 35.9302 109.373 43.1545 118.959C45.2306 121.985 47.2009 125.192 49.3864 128.189C53.6298 134.145 58.8145 139.477 62.3719 145.596C63.3643 147.011 64.4954 149.548 66.3197 149.552C66.6809 149.471 66.8926 149.092 67.1991 148.857C68.1404 147.975 69.9939 146.232 72.3473 144.018C81.2755 135.609 96.6435 121.217 98.4825 119.437C108.166 108.494 117.16 96.6175 122.968 83.0786C123.297 82.2623 123.315 81.7696 122.523 81.6593C120.002 81.2217 114.044 80.876 110.658 81.5122M89.941 65.1861C88.1349 65.5207 86.234 66.7489 85.0117 68.2123C83.4245 70.0839 82.7933 72.2902 81.6221 73.4925C80.9143 74.0956 79.8343 74.1912 78.9075 74.1838C75.912 74.1066 75.0546 71.5915 72.7377 69.9001C70.3551 67.8998 65.1631 69.3044 64.5647 72.4262C64.1196 74.8714 65.9476 78.4014 68.2061 78.1697C75.7733 77.6476 82.4978 76.5188 90.2949 76.3864C90.8568 76.3239 91.3056 76.1768 91.6486 75.8679C93.856 73.7794 95.2753 64.5684 89.9921 65.1824M98.3438 32.648C87.4526 34.891 81.6039 47.3709 78.8491 57.3136C78.466 59.2072 76.9482 59.7147 75.2078 59.5897C74.0293 59.5419 72.7304 59.4794 71.9642 58.6925C71.4315 58.1593 71.1724 57.3761 70.9426 56.6554C69.9939 53.449 67.7938 50.9854 65.1741 48.6174C63.8642 47.3819 62.3464 46.4516 60.9015 45.422C59.1575 44.1682 57.4098 42.9952 55.3337 42.4179C48.3611 40.2411 41.8045 43.1459 39.5935 50.1728C38.7141 52.3349 38.5098 55.1882 38.9768 57.4459C40.1152 62.4026 44.1287 69.161 46.8689 73.8676C48.5947 76.5702 49.6345 78.4896 50.6707 79.2508C52.0791 79.5854 53.8961 79.306 55.4577 79.1846C62.1347 78.4382 56.1765 75.3715 57.5229 69.9847C58.1906 67.0835 61.8246 63.9359 64.645 63.2814C68.0638 62.3658 70.6799 62.0349 73.9089 63.1564C74.9488 63.4542 76.0762 64.0462 77.0942 64.1896C77.9187 64.2963 78.6047 63.9911 79.3198 63.5204C90.3278 56.1002 101.934 57.3981 100.307 71.9372C100.23 72.702 100.062 73.6249 99.9821 74.3052C99.9346 74.8751 99.9054 75.3899 100.431 75.6657C101.555 76.1658 103.459 75.8753 104.47 75.6914C104.988 75.5921 105.444 75.3826 105.736 74.9266C106.714 73.544 109.085 69.2419 110.435 66.7047C111.172 65.3295 111.523 64.6529 111.95 63.355C112.614 61.1009 113.54 58.7108 113.799 56.3245C114.416 51.5737 115.295 46.6134 113.449 42.1164C111.504 37.3803 103.773 32.1001 98.4058 32.6333M95.684 7.55955C93.1664 7.86475 89.6564 8.62222 87.1425 10.1408C83.6143 12.6449 80.0167 17.6015 78.3748 20.0468C77.6779 21.297 77.3715 22.6869 76.5432 24.018C75.9704 24.9152 75.1093 25.8271 74.1351 26.3823C72.7523 27.2648 71.5701 26.2683 70.7565 25.1358C65.5134 18.359 57.1434 15.9028 48.8829 15.4873C44.822 15.3438 41.4324 15.2225 36.8971 16.3072C35.0728 16.7448 33.5951 17.3809 32.0298 18.234C28.9577 19.9107 26.1373 21.9699 24.3276 24.0548C22.8316 25.7793 21.9997 27.0148 21.2335 28.7099C20.1608 31.0595 18.8729 34.1703 18.1176 36.2331C14.8849 45.6132 17.9498 64.5978 21.551 74.0993C22.1566 75.7686 22.5762 76.9379 23.1235 78.5558C23.5285 79.67 23.8715 81.0084 24.7107 81.5085C25.5645 82.0086 26.6408 81.7549 27.604 81.6335C33.4346 80.6223 36.3133 81.5306 41.1222 80.0781C41.9541 79.7803 43.0852 79.1258 42.5999 78.1881C42.0526 76.9968 40.761 75.1803 39.2797 72.8785C31.7963 61.6966 28.757 49.5182 39.4512 39.0093C46.6317 31.6147 57.76 34.2806 65.5827 39.5792C66.7977 40.3514 67.677 41.1089 68.7242 42.2193C70.2457 43.7159 72.6611 46.5693 74.5948 47.0546C75.445 47.2753 76.5031 44.0248 78.0391 41.3883C80.9398 35.8213 85.7962 29.6291 92.1192 27.3604C93.6772 26.7978 95.1513 25.9521 96.7384 25.9742C97.6396 25.9595 99.1064 25.9595 100.059 25.9742C106.94 26.2794 116.12 32.3244 119.426 38.068C125.216 47.8783 122.038 59.016 117.733 68.58C116.941 70.345 116.098 72.0806 115.255 73.7573C114.996 74.3714 114.175 75.5407 115.35 75.5848C117.441 75.776 123.37 75.5554 125.917 75.3715C126.395 75.3311 126.807 75.2171 127.179 74.9266C136.286 62.4283 144.393 46.0655 139.384 30.3866C138.555 28.4415 137.293 26.7978 136.29 24.9667C134.644 22.1537 132.718 19.3371 130.058 17.3809C124.297 13.2369 114.54 9.44955 107.122 7.94564C103.623 7.24701 99.3618 7.38306 95.7387 7.54852M103.197 0.0510401C109.476 0.495962 120.987 3.69131 127.132 6.69913C133.776 10.2401 140.756 16.6345 144.24 22.9737C149.396 33.6187 150.173 44.3447 146.203 55.4125C144.984 59.0234 143.441 62.6526 141.587 66.0318C140.467 68.1057 139.267 69.8265 138.216 71.6504C136.425 75.0406 134.794 78.3904 132.933 81.685C131.714 83.9133 130.66 86.1673 129.284 88.3257C126.121 93.5876 123.446 99.5811 120.564 104.027C118.824 106.608 116.974 109.072 115.164 111.623C109.695 118.746 101.42 126.982 95.4103 132.88C93.7028 134.564 91.7617 136.219 89.9337 137.705C87.3724 139.9 84.884 142.117 82.3336 144.265C78.6047 147.567 73.7228 152.758 70.4317 155.998C69.7349 156.605 69.2642 157.296 68.4432 157.704C67.5055 158.208 66.1373 158.542 65.0062 158.278C61.1751 157.057 59.1392 153.218 56.8953 150.107C55.8883 148.585 55.1038 146.956 53.9837 145.474C53.0496 144.14 52.0791 142.658 51.0246 141.404C43.6033 132.671 36.9993 123.857 32.205 113.249C30.118 109.465 28.1732 105.777 26.3562 101.839C25.517 100.044 24.8968 98.1508 23.9335 96.4079C22.1347 93.1059 20.9161 90.0944 19.6464 86.5791C18.176 82.5123 16.7567 78.9346 15.3994 74.6471C12.9292 67.0099 11.4661 59.0896 10.8495 51.0626C10.6415 47.4113 10.2438 43.4842 10.5175 39.6307C10.7948 36.8545 11.7763 33.8945 12.8818 31.2765C13.9581 28.7981 15.06 27.0515 15.8956 25.4814C16.494 24.3342 17.1653 23.187 17.968 22.15C20.117 19.3665 23.3972 16.5646 26.2905 14.6342C27.7974 13.5752 33.0843 10.7806 37.4298 9.57457C45.683 7.2801 57.7162 7.97874 65.5645 12.0492C66.7466 12.7148 68.093 13.6414 69.2751 14.4614C71.0009 15.741 72.205 16.5352 73.7411 14.5753C74.9378 13.031 76.2878 11.5234 77.5283 10.0746C78.0392 9.41646 78.9805 8.17362 80.5531 6.7359C86.504 0.698199 96.888 -0.257831 103.145 0.0510401" fill="#ECE6DA"/>
</svg>
