<svg width="12" height="13" viewBox="0 0 12 13" fill="none" xmlns="http://www.w3.org/2000/svg">
<path d="M9.27267 0.5H2.72725C2.00421 0.500866 1.31102 0.788479 0.799751 1.29975C0.288479 1.81102 0.000866098 2.50421 0 3.22725V7.59086C0.000793372 8.21933 0.21823 8.82831 0.61566 9.31517C1.01309 9.80202 1.56621 10.137 2.1818 10.2636V11.9545C2.18179 12.0532 2.20858 12.1501 2.25933 12.2348C2.31007 12.3195 2.38286 12.3889 2.46993 12.4355C2.557 12.4821 2.65508 12.5041 2.75372 12.4994C2.85235 12.4946 2.94783 12.4631 3.02998 12.4083L6.1636 10.3181H9.27267C9.99571 10.3172 10.6889 10.0296 11.2002 9.51836C11.7114 9.00709 11.9991 8.31391 11.9999 7.59086V3.22725C11.9991 2.50421 11.7114 1.81102 11.2002 1.29975C10.6889 0.788479 9.99571 0.500866 9.27267 0.5ZM8.18176 7.04541H3.81816C3.67349 7.04541 3.53476 6.98794 3.43246 6.88565C3.33017 6.78336 3.27271 6.64462 3.27271 6.49996C3.27271 6.3553 3.33017 6.21656 3.43246 6.11427C3.53476 6.01198 3.67349 5.95451 3.81816 5.95451H8.18176C8.32643 5.95451 8.46516 6.01198 8.56746 6.11427C8.66975 6.21656 8.72721 6.3553 8.72721 6.49996C8.72721 6.64462 8.66975 6.78336 8.56746 6.88565C8.46516 6.98794 8.32643 7.04541 8.18176 7.04541ZM9.27267 4.86361H2.72725C2.58259 4.86361 2.44385 4.80614 2.34156 4.70385C2.23927 4.60156 2.1818 4.46282 2.1818 4.31816C2.1818 4.17349 2.23927 4.03476 2.34156 3.93246C2.44385 3.83017 2.58259 3.7727 2.72725 3.7727H9.27267C9.41733 3.7727 9.55607 3.83017 9.65836 3.93246C9.76065 4.03476 9.81812 4.17349 9.81812 4.31816C9.81812 4.46282 9.76065 4.60156 9.65836 4.70385C9.55607 4.80614 9.41733 4.86361 9.27267 4.86361Z" fill="#D6D4CD"/>
</svg>
