<svg width="42" height="48" viewBox="0 0 42 48" fill="none" xmlns="http://www.w3.org/2000/svg">
<path d="M26.9013 24.8345C26.4869 24.771 26.0581 25.0362 25.6603 25.0396C24.9788 25.0875 24.5201 24.9805 23.6248 24.9961C22.5001 25.0084 21.3188 25.2547 20.203 25.2825C19.3775 25.3405 18.4733 25.3605 17.6389 25.4787C16.3558 25.6625 15.0615 25.6692 13.7773 25.7985C13.5401 25.8442 13.3595 25.9869 13.354 26.2187C13.3595 26.3814 13.426 26.475 13.518 26.641C13.6177 26.8149 13.7562 27.0445 13.9158 27.3041C14.3967 28.0943 15.0106 29.0371 15.4482 29.844C15.7519 30.4269 15.9624 31.0833 16.1519 31.7174C16.3879 32.4552 16.8034 33.4002 17.1901 34.1759C17.4472 34.6652 17.7109 35.248 18.0146 35.5768C18.4678 35.7975 19.0096 34.9092 19.2423 34.5715C19.5581 34.0667 19.8385 33.6309 20.1953 33.174C22.5544 30.5216 24.5766 28.15 26.8537 25.4831C27.0122 25.3059 27.2449 24.9415 26.9169 24.839M30.1159 24.8947C29.8599 25.1321 29.6394 25.3995 29.4377 25.6837C27.031 28.9736 24.1389 31.8589 21.5936 35.0262C20.9443 35.8587 20.3404 36.679 19.6656 37.4903C19.28 37.9227 18.9852 38.51 18.4844 38.7396C18.1176 38.8956 17.5492 38.9703 17.2267 38.6338C16.3247 37.604 15.9303 36.6857 15.2577 35.2079C14.7546 34.2093 14.5186 33.0993 14.1208 32.0607C13.7374 31.003 13.2232 30.078 12.77 29.1731C12.4919 28.6426 12.0996 27.9216 11.7661 27.3666C11.5057 26.9497 11.2398 26.4549 10.8896 26.2956C10.5483 26.1373 10.1782 26.1986 9.80812 26.1908C9.15325 26.1986 8.35322 26.2164 7.76926 26.2833C7.08668 26.3858 6.53153 26.4115 5.81239 26.3791C5.36916 26.3847 4.66885 26.222 4.89933 26.933C6.55813 30.1984 7.74599 33.1495 9.93999 36.0549C10.5705 36.9721 11.1688 37.9439 11.8326 38.8522C13.1213 40.6576 14.6959 42.2736 15.7762 44.128C16.0776 44.5571 16.4211 45.3261 16.9752 45.3272C17.0849 45.3027 17.1491 45.1879 17.2422 45.1166C17.5281 44.8491 18.091 44.3208 18.8057 43.6499C21.5172 41.1012 26.1844 36.7392 26.7429 36.1998C29.6837 32.8831 32.4151 29.2834 34.1792 25.18C34.2789 24.9326 34.2845 24.7832 34.044 24.7498C33.2783 24.6172 31.4688 24.5124 30.4405 24.7052M24.1489 19.757C23.6004 19.8584 23.0231 20.2307 22.6519 20.6742C22.1698 21.2415 21.9782 21.9102 21.6225 22.2746C21.4075 22.4574 21.0795 22.4863 20.798 22.4841C19.8883 22.4607 19.6279 21.6984 18.9243 21.1858C18.2007 20.5795 16.6239 21.0052 16.4422 21.9514C16.307 22.6925 16.8622 23.7624 17.5481 23.6922C19.8462 23.5339 21.8884 23.1918 24.2564 23.1517C24.427 23.1327 24.5633 23.0881 24.6675 22.9945C25.3378 22.3615 25.7689 19.5698 24.1644 19.7559M26.7008 9.89516C23.3932 10.575 21.6169 14.3575 20.7803 17.371C20.664 17.9449 20.203 18.0987 19.6745 18.0608C19.3165 18.0463 18.9221 18.0274 18.6894 17.7889C18.5276 17.6273 18.4489 17.3899 18.3791 17.1715C18.091 16.1997 17.4228 15.453 16.6272 14.7353C16.2294 14.3608 15.7685 14.0788 15.3297 13.7668C14.8 13.3868 14.2692 13.0313 13.6388 12.8563C11.5212 12.1965 9.53 13.0769 8.8585 15.2067C8.59145 15.862 8.5294 16.7268 8.67124 17.4111C9.01696 18.9134 10.2358 20.9618 11.068 22.3883C11.5921 23.2074 11.9079 23.7891 12.2226 24.0198C12.6503 24.1212 13.2022 24.0365 13.6764 23.9998C15.7042 23.7735 13.8947 22.8441 14.3036 21.2114C14.5064 20.3321 15.61 19.3781 16.4666 19.1797C17.5048 18.9022 18.2993 18.8019 19.28 19.1418C19.5958 19.2321 19.9382 19.4115 20.2473 19.455C20.4978 19.4873 20.7061 19.3948 20.9233 19.2522C24.2663 17.0032 27.7911 17.3966 27.2969 21.8032C27.2737 22.035 27.2227 22.3147 27.1983 22.5209C27.1839 22.6936 27.175 22.8496 27.3346 22.9332C27.6759 23.0848 28.2543 22.9968 28.5612 22.941C28.7186 22.9109 28.8571 22.8474 28.9458 22.7092C29.2427 22.2902 29.963 20.9863 30.373 20.2173C30.5968 19.8005 30.7032 19.5954 30.8328 19.202C31.0345 18.5189 31.3159 17.7945 31.3946 17.0712C31.5819 15.6313 31.8489 14.1279 31.2882 12.7649C30.6976 11.3295 28.3496 9.72911 26.7196 9.8907M25.893 2.2912C25.1284 2.3837 24.0624 2.61328 23.299 3.07355C22.2275 3.8325 21.1349 5.33479 20.6363 6.0759C20.4246 6.45482 20.3315 6.87609 20.08 7.27952C19.906 7.55145 19.6445 7.82784 19.3487 7.99612C18.9287 8.26359 18.5697 7.96157 18.3226 7.61832C16.7303 5.56437 14.1884 4.81991 11.6797 4.69397C10.4464 4.65051 9.41697 4.61373 8.03963 4.9425C7.48559 5.07512 7.03682 5.26792 6.56145 5.52648C5.62845 6.03467 4.77191 6.65877 4.2223 7.29067C3.76799 7.81335 3.51534 8.18781 3.28265 8.70157C2.95687 9.41371 2.56572 10.3565 2.33635 10.9818C1.35459 13.8247 2.28538 19.5787 3.37905 22.4585C3.56299 22.9644 3.69042 23.3188 3.85663 23.8092C3.97963 24.1469 4.08379 24.5525 4.33865 24.7041C4.59794 24.8557 4.92482 24.7788 5.21735 24.742C6.98806 24.4355 7.86234 24.7108 9.32279 24.2706C9.57543 24.1803 9.91893 23.9819 9.77156 23.6978C9.60535 23.3367 9.21309 22.7861 8.76321 22.0885C6.49054 18.6994 5.56751 15.0083 8.81528 11.8232C10.996 9.582 14.3756 10.39 16.7513 11.9959C17.1203 12.23 17.3874 12.4595 17.7054 12.7961C18.1675 13.2497 18.901 14.1145 19.4883 14.2616C19.7465 14.3285 20.0678 13.3433 20.5343 12.5442C21.4152 10.8569 22.8901 8.98019 24.8104 8.29257C25.2836 8.12206 25.7312 7.86573 26.2132 7.87242C26.4869 7.86796 26.9324 7.86796 27.2216 7.87242C29.3114 7.96492 32.0993 9.79709 33.1033 11.5379C34.8618 14.5113 33.8966 17.887 32.5891 20.7857C32.3487 21.3206 32.0927 21.8466 31.8367 22.3548C31.7581 22.5409 31.5087 22.8953 31.8655 22.9087C32.5005 22.9667 34.3011 22.8998 35.0745 22.8441C35.2197 22.8318 35.3449 22.7973 35.4579 22.7092C38.2237 18.9212 40.6858 13.9618 39.1645 9.20977C38.9129 8.62022 38.5295 8.12205 38.2248 7.56705C37.7251 6.71449 37.14 5.86081 36.3322 5.26792C34.5826 4.01192 31.6195 2.86403 29.3668 2.40822C28.3042 2.19647 27.0099 2.2377 25.9096 2.28785M28.1745 0.0154695C30.0815 0.150319 33.5775 1.11879 35.4435 2.03041C37.4613 3.10364 39.5811 5.04169 40.6393 6.96301C42.205 10.1894 42.441 13.4403 41.2355 16.7948C40.8654 17.8892 40.3966 18.9892 39.8337 20.0133C39.4936 20.6419 39.129 21.1635 38.8099 21.7162C38.2658 22.7438 37.7705 23.759 37.2054 24.7576C36.8353 25.433 36.515 26.1161 36.0973 26.7703C35.1366 28.3651 34.3244 30.1817 33.449 31.5291C32.9204 32.3114 32.3586 33.0581 31.809 33.8315C30.148 35.9902 27.6349 38.4866 25.8099 40.2742C25.2913 40.7847 24.7018 41.2862 24.1467 41.7364C23.3688 42.4017 22.6131 43.0738 21.8385 43.7246C20.7061 44.7254 19.2235 46.299 18.224 47.2808C18.0123 47.4647 17.8694 47.6743 17.6201 47.798C17.3353 47.9506 16.9198 48.0521 16.5763 47.9718C15.4128 47.6018 14.7945 46.4383 14.113 45.4955C13.8072 45.0341 13.5689 44.5404 13.2288 44.0913C12.9451 43.6867 12.6503 43.2376 12.3301 42.8576C10.0763 40.2107 8.07066 37.5393 6.61464 34.3241C5.98082 33.1773 5.39021 32.0595 4.83839 30.866C4.58353 30.3221 4.39516 29.7482 4.10263 29.2199C3.55634 28.2191 3.18624 27.3064 2.80063 26.241C2.35408 25.0084 1.92304 23.924 1.51083 22.6245C0.76066 20.3098 0.316321 17.9092 0.129055 15.4764C0.0658949 14.3697 -0.0548857 13.1795 0.0282202 12.0115C0.112434 11.1701 0.410507 10.273 0.746255 9.47947C1.07314 8.72832 1.40778 8.19895 1.66153 7.72308C1.84325 7.37537 2.04714 7.02765 2.29092 6.71338C2.94358 5.86973 3.93974 5.02051 4.81844 4.43542C5.27608 4.11445 6.88169 3.26746 8.20141 2.90192C10.7079 2.2065 14.3623 2.41825 16.7458 3.65195C17.1048 3.85367 17.5137 4.13451 17.8727 4.38304C18.3968 4.77087 18.7625 5.01159 19.229 4.41759C19.5925 3.94951 20.0024 3.49259 20.3792 3.05349C20.5343 2.854 20.8202 2.47731 21.2978 2.04156C23.1051 0.211614 26.2587 -0.0781451 28.159 0.0154695" fill="#241F21"/>
</svg>
