<svg width="12" height="12" viewBox="0 0 12 12" fill="none" xmlns="http://www.w3.org/2000/svg">
<path d="M2.2135 11.6063C2.02048 11.7989 1.7459 11.9314 1.43919 11.9797C1.13248 12.0281 0.813779 11.9892 0.540448 11.8701C0.317223 11.7798 0.145657 11.6271 0.0599381 11.4423C-0.0257808 11.2575 -0.0193594 11.0542 0.0779234 10.8729C1.07379 9.32872 2.45862 7.52281 3.43505 6.30033C3.92842 5.68271 4.10277 5.57079 3.55413 5.00597C3.09776 4.5361 2.49207 3.95951 2.10352 3.59147C1.42868 2.95246 0.454298 2.07159 0.196534 1.59908C0.0894175 1.36417 0.0811531 1.10861 0.172948 0.869765C0.264744 0.630919 0.451784 0.421314 0.706724 0.271596C1.23208 -0.030314 1.71899 0.0716481 2.31657 0.535307C2.70422 0.836081 4.96951 3.09091 5.28152 3.41087C5.65819 3.7972 5.75288 3.78714 6.15147 3.35533C6.55629 2.9167 8.16891 1.30154 8.58381 0.868731C9.32947 0.0907975 10.1798 -0.227421 10.7143 0.174145C10.841 0.251356 10.947 0.347397 11.0262 0.456753C11.1054 0.566109 11.1562 0.686625 11.1756 0.81138C11.1951 0.936135 11.1829 1.06267 11.1397 1.18372C11.0965 1.30477 11.0232 1.41795 10.9239 1.51676C10.1844 2.42577 9.27633 3.24949 8.45555 4.11301C8.22601 4.32804 8.01544 4.55505 7.82529 4.79246C7.41817 5.36209 7.37443 5.38658 7.79941 5.95742C8.09485 6.35424 8.63207 6.89984 8.94054 7.24319C9.79152 8.19076 10.7143 9.231 11.6575 10.121C12.4642 10.8822 11.6526 11.5075 11.1962 11.6919C10.9225 11.817 10.5972 11.8534 10.2897 11.7933C9.98222 11.7332 9.71701 11.5813 9.5508 11.3701C8.99879 10.797 8.54609 10.1594 8.03232 9.5646C7.61272 9.07881 7.09847 8.34813 6.65077 7.87445C5.96982 7.154 5.84044 6.88965 5.54842 7.29566C4.53586 8.70358 2.76696 11.021 2.2135 11.6063Z" fill="#241F21"/>
</svg>
